<svg width="40" height="40" viewBox="0 0 40 40" fill="none" xmlns="http://www.w3.org/2000/svg">
<path d="M22.9574 19.999L16.9091 13.9576C16.8027 13.8511 16.7183 13.7247 16.6607 13.5856C16.6031 13.4464 16.5734 13.2973 16.5734 13.1467C16.5734 12.9961 16.6031 12.847 16.6607 12.7079C16.7183 12.5688 16.8027 12.4424 16.9091 12.3359C17.0155 12.2294 17.1418 12.1449 17.2808 12.0873C17.4198 12.0297 17.5688 12 17.7193 12C17.8698 12 18.0188 12.0297 18.1578 12.0873C18.2968 12.1449 18.4232 12.2294 18.5296 12.3359L25.3768 19.1882C25.4838 19.2943 25.5687 19.4206 25.6266 19.5598C25.6845 19.699 25.7144 19.8483 25.7144 19.999C25.7144 20.1498 25.6845 20.2991 25.6266 20.4382C25.5687 20.5774 25.4838 20.7037 25.3768 20.8099L18.5296 27.6622C18.4235 27.7692 18.2973 27.8542 18.1582 27.9122C18.0191 27.9701 17.87 28 17.7193 28C17.5687 28 17.4195 27.9701 17.2804 27.9122C17.1414 27.8542 17.0152 27.7692 16.9091 27.6622C16.8021 27.556 16.7172 27.4297 16.6593 27.2905C16.6013 27.1514 16.5715 27.0021 16.5715 26.8513C16.5715 26.7006 16.6013 26.5513 16.6593 26.4121C16.7172 26.273 16.8021 26.1466 16.9091 26.0405L22.9574 19.999Z" fill="white"/>
</svg>
